HIERARCHY
ROOT Hips
{
	OFFSET 0.000000 0.000000 0.000000
	CHANNELS 6 Xposition Yposition Zposition Zrotation Yrotation Xrotation 
	JOINT LHipJoint
	{
		OFFSET 0.000000 0.000000 0.000000
		CHANNELS 3 Zrotation Yrotation Xrotation
		JOINT LeftUpLeg
		{
			OFFSET 1.363060 -1.794630 0.839290
			CHANNELS 3 Zrotation Yrotation Xrotation
			JOINT LeftLeg
			{
				OFFSET 2.448110 -6.726130 0.000000
				CHANNELS 3 Zrotation Yrotation Xrotation
				JOINT LeftFoot
				{
					OFFSET 2.562200 -7.039590 0.000000
					CHANNELS 3 Zrotation Yrotation Xrotation
					JOINT LeftToeBase
					{
						OFFSET 0.157640 -0.433110 2.322550
						CHANNELS 3 Zrotation Yrotation Xrotation
						End Site
						{
							OFFSET 0.000000 0.000000 0.000000
						}
					}
				}
			}
		}
	}
	JOINT RHipJoint
	{
		OFFSET 0.000000 0.000000 0.000000
		CHANNELS 3 Zrotation Yrotation Xrotation
		JOINT RightUpLeg
		{
			OFFSET -1.305520 -1.794630 0.839290
			CHANNELS 3 Zrotation Yrotation Xrotation
			JOINT RightLeg
			{
				OFFSET -2.542530 -6.985550 0.000000
				CHANNELS 3 Zrotation Yrotation Xrotation
				JOINT RightFoot
				{
					OFFSET -2.568260 -7.056230 0.000000
					CHANNELS 3 Zrotation Yrotation Xrotation
					JOINT RightToeBase
					{
						OFFSET -0.164730 -0.452590 2.363150
						CHANNELS 3 Zrotation Yrotation Xrotation
						End Site
						{
							OFFSET 0.000000 0.000000 0.000000
						}
					}
				}
			}
		}
	}
	JOINT LowerBack
	{
		OFFSET 0.000000 0.000000 0.000000
		CHANNELS 3 Zrotation Yrotation Xrotation
		JOINT Spine
		{
			OFFSET 0.028270 2.035590 -0.193380
			CHANNELS 3 Zrotation Yrotation Xrotation
			JOINT Spine1
			{
				OFFSET 0.056720 2.048850 -0.042750
				CHANNELS 3 Zrotation Yrotation Xrotation
				JOINT Neck
				{
					OFFSET 0.000000 0.000000 0.000000
					CHANNELS 3 Zrotation Yrotation Xrotation
					JOINT Neck1
					{
						OFFSET -0.054170 1.746240 0.172020
						CHANNELS 3 Zrotation Yrotation Xrotation
						JOINT Head
						{
							OFFSET 0.104070 1.761360 -0.123970
							CHANNELS 3 Zrotation Yrotation Xrotation
							End Site
							{
								OFFSET 0.000000 0.000000 0.000000
							}
						}
					}
				}
				JOINT LeftShoulder
				{
					OFFSET 0.000000 0.000000 0.000000
					CHANNELS 3 Zrotation Yrotation Xrotation
					JOINT LeftArm
					{
						OFFSET 3.362410 1.200890 -0.311210
						CHANNELS 3 Zrotation Yrotation Xrotation
						JOINT LeftForeArm
						{
							OFFSET 4.983000 -0.000000 -0.000000
							CHANNELS 3 Zrotation Yrotation Xrotation
							JOINT LeftHand
							{
								OFFSET 3.483560 -0.000000 -0.000000
								CHANNELS 3 Zrotation Yrotation Xrotation
								JOINT LeftFingerBase
								{
									OFFSET 0.000000 0.000000 0.000000
									CHANNELS 3 Zrotation Yrotation Xrotation
									JOINT LeftHandIndex1
									{
										OFFSET 0.715260 -0.000000 -0.000000
										CHANNELS 3 Zrotation Yrotation Xrotation
										End Site
										{
											OFFSET 0.000000 0.000000 0.000000
										}
									}
								}
								JOINT LThumb
								{
									OFFSET 0.000000 0.000000 0.000000
									CHANNELS 3 Zrotation Yrotation Xrotation
									End Site
									{
										OFFSET 0.000000 0.000000 0.000000
									}
								}
							}
						}
					}
				}
				JOINT RightShoulder
				{
					OFFSET 0.000000 0.000000 0.000000
					CHANNELS 3 Zrotation Yrotation Xrotation
					JOINT RightArm
					{
						OFFSET -3.136600 1.374050 -0.404650
						CHANNELS 3 Zrotation Yrotation Xrotation
						JOINT RightForeArm
						{
							OFFSET -5.241900 -0.000000 -0.000000
							CHANNELS 3 Zrotation Yrotation Xrotation
							JOINT RightHand
							{
								OFFSET -3.444170 -0.000000 -0.000000
								CHANNELS 3 Zrotation Yrotation Xrotation
								JOINT RightFingerBase
								{
									OFFSET 0.000000 0.000000 0.000000
									CHANNELS 3 Zrotation Yrotation Xrotation
									JOINT RightHandIndex1
									{
										OFFSET -0.622530 -0.000000 -0.000000
										CHANNELS 3 Zrotation Yrotation Xrotation
										End Site
										{
											OFFSET 0.000000 0.000000 0.000000
										}
									}
								}
								JOINT RThumb
								{
									OFFSET 0.000000 0.000000 0.000000
									CHANNELS 3 Zrotation Yrotation Xrotation
									End Site
									{
										OFFSET 0.000000 0.000000 0.000000
									}
								}
							}
						}
					}
				}
			}
		}
	}
}
MOTION
Frames: 12
Frame Time: 0.008333
11.762115 17.955485 -45.117658 3.089981 15.276654 -1.951866 -0.788948 1.944404 2.057274 -21.145428 -7.268829 -11.182815 -1.821161 9.085593 26.287925 3.241280 -4.973444 8.118373 2.193800 -9.258600 -26.607500 -3.175829 -3.245113 0.819520 12.656382 -0.139732 -11.386495 -5.495488 -14.680696 49.358821 4.115315 -14.064518 -2.951836 -0.029900 1.116800 -3.070300 6.655349 2.957722 5.115786 9.000362 3.740315 9.369352 -2.821696 2.307729 -6.465064 -17.206742 -13.700150 1.632555 15.473778 -19.909315 3.057243 4.673100 -10.280800 1.776000 -0.406878 -11.535707 1.856779 -74.945303 12.881003 39.944636 61.069917 -48.514198 -35.363183 0.202697 0.626699 2.732880 -0.653990 -28.249374 0.398300 -7.125000 0.000000 0.000000 -18.261300 2.310400 18.486700 -0.982037 10.018397 2.536347 65.565763 11.002521 41.255093 -23.801306 27.199271 -7.539659 1.493523 -0.123292 32.451307 -22.150702 -52.926608 19.117900 7.125000 0.000000 0.000000 -8.667200 5.659200 -172.137200 
11.775306 17.928864 -45.135008 3.335976 15.819821 -1.795889 -0.781366 1.891980 2.002496 -21.428487 -7.368716 -11.377198 -1.770546 9.179651 26.548158 3.519056 -5.869377 8.029165 1.991600 -8.848600 -25.322900 -3.212931 -3.229677 0.802751 12.517879 -0.622193 -11.734872 -5.590847 -14.750224 49.689356 4.091059 -14.039591 -3.746530 -0.019300 0.897900 -2.468000 6.626876 2.762558 4.855114 8.776641 3.465104 9.339730 -2.841313 2.167771 -6.323158 -17.282215 -13.657089 1.610574 15.404707 -19.859508 3.169661 4.654700 -10.250600 1.809300 -0.376955 -11.552040 1.874289 -74.356440 12.191294 39.974910 61.231034 -48.591030 -35.499439 0.200036 0.627227 2.351150 -1.014680 -28.123828 0.571000 -7.125000 0.000000 0.000000 -18.466800 2.453300 18.669100 -0.960723 10.020220 2.523896 65.689344 10.866272 41.490925 -23.511420 26.887375 -7.404734 1.501493 -0.135027 32.546937 -22.661936 -52.860107 19.540200 7.125000 0.000000 0.000000 -8.444800 5.590500 -172.332400 
11.773523 17.894876 -45.158776 3.601126 15.322608 -2.042598 -0.744816 1.883679 2.055979 -21.754866 -6.571744 -11.556569 -1.686354 9.275848 26.846754 3.577630 -6.049651 7.583912 2.143000 -9.157700 -26.290000 -3.245458 -3.217752 0.791708 12.331333 -0.311207 -11.687624 -5.668055 -14.815814 49.995944 4.074733 -14.032151 -4.363643 -0.007700 0.568000 -1.560900 6.437791 2.828652 5.253325 8.651172 3.579230 9.505513 -2.792267 2.232900 -6.465217 -17.415221 -13.644060 1.364897 15.165210 -19.829287 3.521675 4.565900 -10.213200 1.931200 -0.358380 -11.537095 1.881651 -73.909556 11.496598 39.785223 61.177385 -48.612315 -35.425413 0.201017 0.628868 2.042159 -1.180056 -28.158173 0.653400 -7.125000 0.000000 0.000000 -18.561200 2.430600 18.783900 -0.955961 10.030104 2.521164 65.745503 10.486704 41.617073 -23.472185 26.872724 -7.406718 1.505325 -0.105802 32.149159 -22.491506 -53.295485 19.495300 7.125000 0.000000 0.000000 -8.609700 5.229900 -172.119500 
11.787071 17.878357 -45.168759 3.789601 15.990221 -1.886466 -0.751094 1.854338 2.006974 -21.963857 -6.780293 -11.648624 -1.670885 9.323389 26.945279 3.678257 -6.396182 7.446300 2.184100 -9.239400 -26.547100 -3.274991 -3.220543 0.780536 12.246010 -0.950277 -11.989553 -5.753474 -14.864883 50.271195 4.095623 -14.148616 -5.126286 -0.002300 0.312200 -0.857800 6.459859 2.607302 4.910963 8.436843 3.268875 9.437127 -2.833484 2.069815 -6.298365 -17.420070 -13.588519 1.315356 15.101417 -19.752045 3.640606 4.539900 -10.167900 1.961700 -0.338923 -11.546493 1.898683 -73.346168 10.700269 39.742286 60.736453 -48.519606 -34.977663 0.199590 0.627124 2.158088 -0.497089 -28.260709 0.324200 -7.125000 0.000000 0.000000 -18.174900 2.290900 18.396000 -0.931250 10.028239 2.510420 65.925642 9.886565 41.490328 -23.428083 26.832576 -7.370092 1.502191 -0.116053 31.889939 -23.024763 -52.851904 19.842900 7.125000 0.000000 0.000000 -8.300200 5.502200 -172.452500 
11.791349 17.860888 -45.184803 4.008677 15.836547 -1.960956 -0.739247 1.835749 2.026718 -22.200044 -6.361074 -11.789099 -1.629251 9.370542 27.091308 3.767107 -6.682829 7.251980 2.224200 -9.318300 -26.796300 -3.300653 -3.212129 0.770232 12.129905 -0.865515 -12.039872 -5.813525 -14.917105 50.497676 4.141992 -14.320341 -5.681322 -0.001700 0.262800 -0.722100 6.380041 2.640654 4.971604 8.263576 3.313373 9.545970 -2.845497 2.099905 -6.278996 -17.589776 -13.385372 1.540210 15.364526 -19.537931 3.373027 4.679300 -10.084300 1.867700 -0.329716 -11.579467 1.914348 -72.826808 9.938021 39.735002 60.288082 -48.418911 -34.534072 0.198364 0.618443 2.664841 0.389214 -28.089139 -0.106700 -7.125000 0.000000 0.000000 -17.674700 2.400000 17.798400 -0.914853 10.007335 2.486316 66.111447 9.736378 41.430369 -23.031741 26.371069 -7.119326 1.505520 -0.178778 31.716724 -23.591974 -51.065814 19.894600 7.125000 0.000000 0.000000 -7.659600 7.007900 -173.270100 
11.792419 17.842705 -45.197043 4.217817 15.793237 -1.977645 -0.730260 1.808345 2.038303 -22.403951 -5.931245 -11.982207 -1.594828 9.405519 27.203267 3.933104 -7.206782 7.142509 2.217300 -9.304800 -26.753600 -3.322297 -3.199373 0.762798 12.042444 -0.756561 -12.057095 -5.855927 -14.957244 50.696767 4.097468 -14.256194 -6.269474 -0.000100 -0.057600 0.158100 6.296950 2.632436 4.961223 8.097732 3.298743 9.611018 -2.850489 2.097357 -6.245317 -17.816879 -13.238300 1.901813 15.666169 -19.416070 3.100334 4.844300 -10.051200 1.772900 -0.314213 -11.600315 1.927005 -72.306609 9.168160 39.749628 59.920854 -48.339198 -34.181386 0.207732 0.605056 2.990586 0.713418 -27.624530 -0.255400 -7.125000 0.000000 0.000000 -17.500300 2.831500 17.461300 -0.912531 9.966893 2.468005 66.267483 9.007199 41.059552 -23.074263 26.458320 -7.172386 1.497445 -0.169997 31.982188 -24.828553 -51.825217 21.112700 7.125000 0.000000 0.000000 -7.329500 5.979900 -173.418600 
11.793370 17.821314 -45.211660 4.498125 15.730170 -1.989456 -0.723052 1.791176 2.051975 -22.678307 -5.580796 -12.112975 -1.565182 9.431021 27.300362 4.132590 -7.889003 7.133167 1.907000 -8.669600 -24.767300 -3.352774 -3.189841 0.751910 11.870652 -0.678485 -12.079351 -5.911872 -14.995894 50.903906 4.065993 -14.222222 -6.768395 -0.001300 -0.230500 0.633200 6.220228 2.634019 5.005391 7.836497 3.314857 9.655573 -2.898478 2.098576 -6.243933 -17.653632 -13.223466 1.521955 15.345796 -19.335527 3.510036 4.684000 -9.978400 1.892100 -0.296216 -11.585816 1.948065 -71.710716 8.314393 39.831229 59.417091 -48.213641 -33.694759 0.212991 0.593578 3.087211 1.229171 -27.267508 -0.491300 -7.125000 0.000000 0.000000 -17.213100 3.145400 17.042700 -0.891964 10.000518 2.461401 66.511761 8.839557 40.434264 -22.825826 26.215417 -7.112256 1.516144 -0.114694 32.512567 -22.660481 -53.403366 19.671400 7.125000 0.000000 0.000000 -8.563500 5.086400 -172.139200 
11.795509 17.799922 -45.228060 4.851444 15.682085 -1.953541 -0.713912 1.768331 2.057017 -23.042457 -5.195180 -12.284293 -1.527102 9.476573 27.437284 4.277285 -8.424650 7.052221 1.768500 -8.366300 -23.832200 -3.391131 -3.189113 0.739994 11.605442 -0.737347 -12.161492 -5.968025 -15.023437 51.057416 4.116205 -14.396298 -7.194339 -0.000100 0.069000 -0.189600 6.109748 2.638041 5.000263 7.529345 3.329258 9.673958 -2.950670 2.099539 -6.237109 -17.534423 -13.191532 1.524700 15.203322 -19.286385 3.634788 4.624000 -9.945600 1.897400 -0.287131 -11.573823 1.963179 -71.179408 7.419576 39.773320 58.379863 -47.925679 -32.700404 0.230132 0.603374 3.407690 2.088691 -27.680812 -0.899900 -7.125000 0.000000 0.000000 -16.726200 2.673900 16.663800 -0.869566 10.002283 2.450006 66.775935 7.973111 39.930522 -23.005287 26.435079 -7.187802 1.504459 -0.108007 32.556189 -22.170755 -53.400258 19.246800 7.125000 0.000000 0.000000 -8.761100 5.213500 -171.974800 
11.797648 17.783166 -45.245768 5.108327 15.561862 -1.933467 -0.695155 1.732000 2.064329 -23.309905 -4.606382 -12.599133 -1.471070 9.540232 27.632126 4.484847 -9.153010 7.021328 1.640300 -8.072900 -22.935600 -3.418031 -3.178120 0.729125 11.425497 -0.708206 -12.218632 -5.996174 -15.042437 51.153541 4.166508 -14.578939 -7.671055 -0.001900 0.278200 -0.764300 6.071603 2.647624 4.941876 7.346174 3.338233 9.745156 -2.987125 2.104637 -6.156818 -17.609165 -13.179958 1.415079 15.084381 -19.264098 3.821608 4.580600 -9.923800 1.962500 -0.285613 -11.580566 1.970399 -70.799275 6.421874 39.580754 57.319867 -47.616174 -31.700785 0.256889 0.616589 3.499146 2.532383 -28.190461 -1.117500 -7.125000 0.000000 0.000000 -16.487000 2.136400 16.570000 -0.850388 10.009346 2.446768 66.784121 7.683815 40.038267 -22.799577 26.214169 -7.091773 1.513491 -0.100623 31.848635 -22.828477 -53.174454 19.758500 7.125000 0.000000 0.000000 -8.448500 5.250400 -172.273800 
11.799787 17.769618 -45.261811 5.217831 15.858038 -2.020051 -0.680758 1.731914 2.071239 -23.416937 -4.446529 -12.674708 -1.424166 9.591373 27.807683 4.685604 -9.895775 7.075745 1.461000 -7.639400 -21.624100 -3.430492 -3.193876 0.741733 11.414224 -0.875755 -12.127867 -6.002741 -15.030970 51.228219 4.170117 -14.682940 -8.410625 -0.000000 -0.025600 0.070400 6.204200 2.477387 4.834745 7.229091 3.113151 9.870956 -3.057044 1.991895 -6.006475 -17.619742 -13.106403 1.051921 14.850439 -19.124844 4.122216 4.476000 -9.832000 2.066300 -0.266903 -11.588042 1.985452 -70.372897 5.453191 39.370426 56.538985 -47.400937 -30.910208 0.219356 0.703808 3.324949 4.713707 -31.398135 -2.417400 -7.125000 0.000000 0.000000 -15.299100 -1.235400 16.209600 -0.837112 10.021255 2.445182 66.701104 7.578501 40.026239 -22.511393 25.900252 -6.972500 1.525553 -0.096297 31.754772 -22.900722 -53.330515 19.864100 7.125000 0.000000 0.000000 -8.450500 5.087700 -172.245600 
11.794677 17.751911 -45.278805 5.347391 15.767990 -2.114858 -0.673024 1.726454 2.078128 -23.529140 -4.204897 -12.767546 -1.376442 9.651300 27.987078 4.738333 -10.099138 6.979207 1.459500 -7.635700 -21.612800 -3.441549 -3.188172 0.747294 11.382865 -0.621535 -11.980377 -5.970893 -15.019293 51.218857 4.155340 -14.737110 -9.111484 -0.004900 -0.453600 1.246300 6.359938 2.451967 4.927554 6.969576 3.114588 9.901700 -3.232615 1.979938 -6.031564 -17.601473 -12.967788 1.343530 15.014619 -18.987088 3.956185 4.560100 -9.778700 1.972600 -0.249003 -11.599077 2.011194 -69.727329 4.689493 39.390585 55.827517 -47.184392 -30.233945 0.218283 0.729181 3.060319 5.576842 -32.197151 -2.944300 -7.125000 0.000000 0.000000 -14.856100 -2.123800 15.933900 -0.819935 10.001295 2.419713 66.986475 7.150987 39.377670 -22.337487 25.707512 -6.872688 1.524392 -0.122569 32.529854 -21.913663 -52.998037 18.957700 7.125000 0.000000 0.000000 -8.767400 5.643400 -172.041400 
11.788497 17.732778 -45.293898 5.573605 15.613218 -2.131567 -0.667213 1.712605 2.077072 -23.737094 -3.922091 -12.905501 -1.330024 9.713282 28.163899 4.797990 -10.353938 6.889398 1.411800 -7.515100 -21.250700 -3.461760 -3.180747 0.742227 11.250953 -0.429427 -11.911613 -5.942405 -15.003848 51.160221 4.226536 -14.986586 -9.604159 -0.002100 -0.296700 0.815100 6.481440 2.468253 5.047049 6.602969 3.184815 9.827276 -3.446202 1.991864 -6.129842 -17.481812 -12.876799 1.552909 15.047217 -18.890005 3.948151 4.576300 -9.733900 1.920000 -0.232605 -11.593954 2.036699 -69.128458 3.982880 39.456249 55.171202 -46.973190 -29.639989 0.246139 0.729714 2.673315 5.222188 -32.061548 -2.722600 -7.125000 0.000000 0.000000 -15.062800 -1.952200 16.127400 -0.790552 9.996821 2.395915 67.441401 6.558997 38.587666 -22.185744 25.544522 -6.789488 1.521522 -0.140032 32.990568 -21.738890 -52.789279 18.764100 7.125000 0.000000 0.000000 -8.792800 5.879700 -172.057900 
